/* XPM */ 
static const char * icon32_xpm[] = {
"32 32 766 2",
"  	c None",
"! 	c #F6CECE",
"# 	c #FCBCBC",
"$ 	c #F0A9A9",
"% 	c #F1AAAC",
"& 	c #F7AAB3",
"' 	c #F6AAB2",
"( 	c #F7AAB4",
") 	c #F3AAAF",
"* 	c #F0AAB0",
"+ 	c #F0A9AA",
", 	c #F0AAAA",
"- 	c #F59F9F",
". 	c #F69C9C",
"0 	c #F69D9D",
"1 	c #F79D9D",
"2 	c #F18585",
"3 	c #ED9595",
"4 	c #FFADAD",
"5 	c #FFC6C6",
"6 	c #F6C6B9",
"7 	c #D6C48A",
"8 	c #DBC490",
"9 	c #D3C488",
": 	c #D0C486",
"; 	c #D2C489",
"< 	c #D8C492",
"= 	c #EAC5A8",
"> 	c #FFC5A1",
"? 	c #FFC7C7",
"@ 	c #FF2A2A",
"A 	c #FF0505",
"B 	c #FF0000",
"C 	c #FF2B2B",
"D 	c #E98383",
"E 	c #FDBEBE",
"F 	c white",
"G 	c #F6FFFE",
"H 	c #B3FF9D",
"I 	c #B0FF9E",
"J 	c #BDFFA5",
"K 	c #CAFF94",
"L 	c #DCFFAB",
"M 	c #EDFFD3",
"N 	c #F9FFC8",
"O 	c #FFFFAC",
"P 	c #FFFFBD",
"Q 	c #FF3131",
"R 	c #FF2626",
"S 	c #FF2F2F",
"T 	c #FF1717",
"U 	c #F32424",
"V 	c #EA8787",
"W 	c #FDBBBE",
"X 	c #FFFFD5",
"Y 	c #F0FEB9",
"Z 	c #F5FFD7",
"[ 	c #FFFFCB",
"] 	c #FFFEB1",
"^ 	c #F8FEAA",
"_ 	c #EAFFBE",
"` 	c #D6FFB7",
"a 	c #E3FFA7",
"b 	c #FFFFC5",
"c 	c #FFD3D3",
"d 	c #FF8282",
"e 	c #F32525",
"f 	c #F16A6A",
"g 	c #FF7B7D",
"h 	c #FCA9A1",
"i 	c #FE9C70",
"j 	c #FF9666",
"k 	c #F68F69",
"l 	c #EE8863",
"m 	c #EA8150",
"n 	c #E57A49",
"o 	c #DD724B",
"p 	c #D86B3D",
"q 	c #E86548",
"r 	c #FF5F54",
"s 	c #FF5959",
"t 	c #FF5354",
"u 	c #FF4F4F",
"v 	c #FF4A4A",
"w 	c #FF4545",
"x 	c #FF4343",
"y 	c #FF4040",
"z 	c #FF0909",
"{ 	c #FFD1D1",
"| 	c #FF8181",
"} 	c #F56163",
"~ 	c #FA6456",
" !	c #E78A68",
"!!	c #ED7A51",
"#!	c #F57350",
"$!	c #DE6942",
"%!	c #DE6035",
"&!	c #DB5625",
"'!	c #EB4D33",
"(!	c #E84221",
")!	c #E83918",
"*!	c #EF2F1B",
"+!	c #FF2720",
",!	c #FF2023",
"-!	c #FF181E",
".!	c #FF1117",
"0!	c #FF0B0F",
"1!	c #FF0407",
"2!	c #FF0101",
"3!	c #FFCFCF",
"4!	c #FF8080",
"5!	c #F26A6C",
"6!	c #F97B6D",
"7!	c #EFA991",
"8!	c #E69C79",
"9!	c #F49670",
":!	c #DF9164",
";!	c #D98854",
"<!	c #D1803B",
"=!	c #D0792D",
">!	c #EF745B",
"?!	c #EC6D50",
"@!	c #E66640",
"A!	c #E65F34",
"B!	c #EB5A37",
"C!	c #EB5434",
"D!	c #ED4E30",
"E!	c #F54B3A",
"F!	c #FC4742",
"G!	c #FF454D",
"H!	c #FF4148",
"I!	c #FF0A0A",
"J!	c #EC8789",
"K!	c #F3BBAB",
"L!	c #EFFFEE",
"M!	c #DDFFCF",
"N!	c #EAFDBB",
"O!	c #D5FEBA",
"P!	c #BCFFA3",
"Q!	c #DEFFCF",
"R!	c #BBFE8C",
"S!	c #DDFFC5",
"T!	c #F5FFF2",
"U!	c #E6FFDA",
"V!	c #E3FFD2",
"W!	c #DEFFC9",
"X!	c #CFFFAF",
"Y!	c #D4FFBA",
"Z!	c #DAFFC2",
"[!	c #D5FFBE",
"]!	c #E4FFD9",
"^!	c #FE2F2D",
"_!	c #EB8688",
"`!	c #F4BBAB",
"a!	c #EFFFED",
"b!	c #E4FED9",
"c!	c #E9FEC3",
"d!	c #EEFFCC",
"e!	c #BBFBA6",
"f!	c #DDF8D7",
"g!	c #C5F6B0",
"h!	c #9BF665",
"i!	c #E7FDDD",
"j!	c #F8FEFA",
"k!	c #F3FEF3",
"l!	c #E9FDE1",
"m!	c #C9FBAC",
"n!	c #97FA5F",
"o!	c #CEFFB9",
"p!	c #FF2E31",
"q!	c #FFE0E0",
"r!	c #FF8B8B",
"s!	c #F4BAAB",
"t!	c #F4FFEA",
"u!	c #D9FABE",
"v!	c #91E06A",
"w!	c #44CC29",
"x!	c #35C513",
"y!	c #33C411",
"z!	c #2DC608",
"{!	c #62D440",
"|!	c #F8FDF6",
"}!	c #A1E391",
"~!	c #51CC3D",
" #	c #5ACE3F",
"!#	c #50CD31",
"##	c #3ECB15",
"$#	c #46CD29",
"%#	c #BAEFB5",
"&#	c #FF333E",
"'#	c #FF6868",
"(#	c #F5BAAD",
")#	c #F6FFF6",
"*#	c #D7F6CA",
"+#	c #4ECD37",
",#	c #19BB00",
"-#	c #5DD142",
".#	c #96E480",
"0#	c #98E582",
"1#	c #71D85A",
"2#	c #5ED736",
"3#	c #DBFEC0",
"4#	c #FBFDFC",
"5#	c #56CE3B",
"6#	c #14BA00",
"7#	c #72D55E",
"8#	c #83DD6A",
"9#	c #71DB4F",
":#	c #6ADC48",
";#	c #CAF5C5",
"<#	c #FF222D",
"=#	c #F42222",
">#	c #FBBBB3",
"?#	c #E9FFE7",
"@#	c #54CE36",
"A#	c #10B900",
"B#	c #92DF6D",
"C#	c #EDFFDB",
"D#	c #DBFFCA",
"E#	c #D6FEC1",
"F#	c #D4FEBE",
"G#	c #C8FDAB",
"H#	c #BBFD8C",
"I#	c #D6F8C5",
"J#	c #3EC621",
"K#	c #2DC208",
"L#	c #CDF5BA",
"M#	c #FFFFF7",
"N#	c #FEFFF8",
"O#	c #DAFFBF",
"P#	c #CFFEB1",
"Q#	c #E39568",
"R#	c #FB7F79",
"S#	c #FF7F80",
"T#	c #FF7E7E",
"U#	c #FF6767",
"V#	c #FF3E3B",
"W#	c #FE7E6B",
"X#	c #FF7F73",
"Y#	c #FD6D67",
"Z#	c #EB3738",
"[#	c #EC8688",
"]#	c #FFBDB9",
"^#	c #98EF8C",
"_#	c #13B900",
"`#	c #54CF37",
"a#	c #F1FDD0",
"b#	c #EFFDCE",
"c#	c #CEFCBA",
"d#	c #D5FCC3",
"e#	c #DAFDCA",
"f#	c #E4FDD8",
"g#	c #D9FFC0",
"h#	c #9EEE75",
"i#	c #1BBC02",
"j#	c #43C922",
"k#	c #D2FABA",
"l#	c #CAFAAB",
"m#	c #DDFACC",
"n#	c #F8FEF3",
"o#	c #ECFDDF",
"p#	c #D0FFC4",
"q#	c #D2FFCA",
"r#	c #ECFFF5",
"s#	c #FEFFFF",
"t#	c #FFE4E8",
"u#	c #FF0B0B",
"v#	c #FF8E89",
"w#	c #FEFFE7",
"x#	c #FFFFF1",
"y#	c #FBECD5",
"z#	c #E24D4E",
"{#	c #EE868B",
"|#	c #F1B8A9",
"}#	c #49D634",
"~#	c #ABEA9B",
" $	c #F4FFE3",
"!$	c #F6FCD6",
"#$	c #E7FDD9",
"$$	c #EAFDE2",
"%$	c #ECFEE4",
"&$	c #EEFEE6",
"'$	c #F3FFED",
"($	c #89E26A",
")$	c #1ABC00",
"*$	c #2CC20A",
"+$	c #56CE38",
",$	c #47CB2D",
"-$	c #6CDA48",
".$	c #D2FBB8",
"0$	c #EFFEE3",
"1$	c #FEFFFE",
"2$	c #DFFDC9",
"3$	c #DBFDC8",
"4$	c #FBFFF8",
"5$	c #FFCBB1",
"6$	c #FF110E",
"7$	c #FF8471",
"8$	c #FEFEBD",
"9$	c #FFF8C0",
":$	c #FBD6B9",
";$	c #E34A4B",
"<$	c #F38891",
"=$	c #CCAD80",
">$	c #2DCE13",
"?$	c #2EC20E",
"@$	c #D8F7CF",
"A$	c #F0FFDF",
"B$	c #F8FDD7",
"C$	c #F1FEEB",
"D$	c #EDFEE5",
"E$	c #F4FFED",
"F$	c #73D85C",
"G$	c #18BB00",
"H$	c #58D131",
"I$	c #8DDE76",
"J$	c #87DB78",
"K$	c #B4E9A8",
"L$	c #F2FEEA",
"M$	c #DDFDC6",
"N$	c #E4FED2",
"O$	c #DEFCC9",
"P$	c #EDFEE9",
"Q$	c #FBFFED",
"R$	c #FFC48F",
"S$	c #FF130D",
"T$	c #FF0301",
"U$	c #FF8262",
"V$	c #FEFEC4",
"W$	c #FFFFE0",
"X$	c #FBE0E7",
"Y$	c #E34A4A",
"Z$	c #F48892",
"[$	c #C6AB79",
"]$	c #2ACD10",
"^$	c #36C513",
"_$	c #E1F9D9",
"`$	c #F4FFEC",
"a$	c #F4FCDB",
"b$	c #F4FEEB",
"c$	c #F1FFE9",
"d$	c #F3FFEA",
"e$	c #F1FFE8",
"f$	c #F0FEE7",
"g$	c #4FCC30",
"h$	c #13BA00",
"i$	c #B6ED95",
"j$	c #FCFFFB",
"k$	c #EFFEE5",
"l$	c #EEFDE5",
"m$	c #F5FFF5",
"n$	c #FBFFEA",
"o$	c #FFC694",
"p$	c #FF160E",
"q$	c #FF0502",
"r$	c #FF8055",
"s$	c #FEFFBF",
"t$	c #FFFEDE",
"u$	c #FBE0E4",
"v$	c #F2888E",
"w$	c #DCB292",
"x$	c #34D01C",
"y$	c #19BC01",
"z$	c #AFEA9F",
"{$	c #FFFFEC",
"|$	c #FFFFFD",
"}$	c #E0FBD4",
"~$	c #EDFFE3",
" %	c #CFF6C0",
"!%	c #34C411",
"#%	c #35C516",
"$%	c #E8FBDC",
"%%	c #F8FEF5",
"&%	c #F6FEF1",
"'%	c #F6FFF5",
"(%	c #FBFFE9",
")%	c #FFC591",
"*%	c #FF1B12",
"+%	c #FF0B06",
",%	c #FF8259",
"-%	c #FFFDDA",
".%	c #FBE0E3",
"0%	c #FFBDBC",
"1%	c #7CE66E",
"2%	c #30C311",
"3%	c #87DE72",
"4%	c #A3E68B",
"5%	c #91DF77",
"6%	c #54CF42",
"7%	c #97E484",
"8%	c #F8FFF3",
"9%	c #B5EBA8",
":%	c #1CBC00",
";%	c #2CC20B",
"<%	c #7ADA61",
"=%	c #88DC70",
">%	c #84DB73",
"?%	c #96E185",
"@%	c #F1FBEF",
"A%	c #FBFFFC",
"B%	c #FBFFFA",
"C%	c #FBFFFE",
"D%	c #FDFFEE",
"E%	c #FFC58B",
"F%	c #FF221E",
"G%	c #FF1311",
"H%	c #FF9088",
"I%	c #FEFFD6",
"J%	c #FFFCD6",
"K%	c #FBE1E8",
"L%	c #EB8687",
"M%	c #FDBBB8",
"N%	c #EFFFF2",
"O%	c #8EDF7A",
"P%	c #41C924",
"Q%	c #30C410",
"R%	c #3BC71C",
"S%	c #3DC71E",
"T%	c #55D03E",
"U%	c #C6F0BD",
"V%	c #B6EAAB",
"W%	c #46C92F",
"X%	c #46CA28",
"Y%	c #3BC61B",
"Z%	c #3AC519",
"[%	c #33CA21",
"]%	c #60DC52",
"^%	c #EFFEEF",
"_%	c #FFFDF6",
"`%	c #FBFCEE",
"a%	c #F8FDED",
"b%	c #F9FDF1",
"c%	c #FCFDDC",
"d%	c #FEC37C",
"e%	c #FF281C",
"f%	c #FF1A15",
"g%	c #FE8B66",
"h%	c #FDF6A0",
"i%	c #FFF8C5",
"j%	c #FBDDD2",
"k%	c #EA8686",
"l%	c #FABAB5",
"m%	c #F3FFF7",
"n%	c #DDFFDF",
"o%	c #DCFFDB",
"p%	c #FAFFF5",
"q%	c #F8FFF9",
"r%	c #F0FFEF",
"s%	c #F9FEF6",
"t%	c #F4FFEF",
"u%	c #F5FFF1",
"v%	c #FDFFF9",
"w%	c #FFE4E3",
"x%	c #FFC4C9",
"y%	c #FFE7DF",
"z%	c #FDF9D8",
"{%	c #F6F6CF",
"|%	c #F8F4C6",
"}%	c #FBF29E",
"~%	c #FDC57E",
" &	c #FF2328",
"!&	c #FE8A59",
"#&	c #FCF284",
"$&	c #FDEC87",
"%&	c #F9CA7D",
"&&	c #E34B4C",
"'&	c #FBBAB6",
"(&	c #FCFFFF",
")&	c #FCCAC5",
"*&	c #FF8381",
"+&	c #FF7E80",
",&	c #FF7979",
"-&	c #FF7873",
".&	c #FD7470",
"0&	c #F6ADA0",
"1&	c #F4FFF1",
"2&	c #FAFFF9",
"3&	c #F8FFF4",
"4&	c #F6FFF0",
"5&	c #F6FFF2",
"6&	c #FBFFFF",
"7&	c #FF5F5F",
"8&	c #FF0D10",
"9&	c #FFCAC0",
":&	c #FDFFE8",
";&	c #F9FCE9",
"<&	c #FBF3C7",
"=&	c #FBF3C5",
">&	c #FCF096",
"?&	c #FDC67F",
"@&	c #FF3B3F",
"A&	c #FF2C35",
"B&	c #FE8F61",
"C&	c #FCF184",
"D&	c #FDE97C",
"E&	c #F9C771",
"F&	c #FBBBB8",
"G&	c #FC6F6C",
"H&	c #FF1F1E",
"I&	c #FE3D3C",
"J&	c #FE3837",
"K&	c #FF3333",
"L&	c #FA9590",
"M&	c #F6FEF4",
"N&	c #F7FEF5",
"O&	c #F9FFFF",
"P&	c #FDFEFC",
"Q&	c #FF1C1B",
"R&	c #FF0F11",
"S&	c #FFE0D4",
"T&	c #FDFFE7",
"U&	c #F9FBEA",
"V&	c #FAF3C3",
"W&	c #FBF092",
"X&	c #FDC77B",
"Y&	c #FF4246",
"Z&	c #FF353D",
"[&	c #FE9261",
"]&	c #FCEE7D",
"^&	c #FDE878",
"_&	c #F9C66E",
"`&	c #FCBFBD",
"a&	c #FD4746",
"b&	c #FDA4A3",
"c&	c #FCF6F5",
"d&	c #FBF3ED",
"e&	c #FDEFE9",
"f&	c #FBF8F4",
"g&	c #FCFFFC",
"h&	c #FEFFFD",
"i&	c #FFE9E6",
"j&	c #FFCCCD",
"k&	c #FFADAA",
"l&	c #FF0807",
"m&	c #FF3B3D",
"n&	c #FFF2E7",
"o&	c #FDFEE5",
"p&	c #FBFBEB",
"q&	c #FBF3C1",
"r&	c #F9F2BE",
"s&	c #FBED8C",
"t&	c #FDC778",
"u&	c #FF4B4F",
"v&	c #FF3F47",
"w&	c #FE9663",
"x&	c #FCED75",
"y&	c #FDE770",
"z&	c #F9C567",
"{&	c #E34B4D",
"|&	c #FDC3C2",
"}&	c #FFF6F3",
"~&	c #FE2222",
" '	c #FF0F0F",
"!'	c #FDE0DD",
"#'	c #FDFFFF",
"$'	c #FFABA9",
"%'	c #FF2727",
"&'	c #FF0202",
"''	c #FF6C6E",
"('	c #FFFFFB",
")'	c #FDF6D2",
"*'	c #FCF6D2",
"+'	c #FBF1BE",
",'	c #FBF1BD",
"-'	c #FCEB87",
".'	c #FDC877",
"0'	c #FF5559",
"1'	c #FF4953",
"2'	c #FE9A65",
"3'	c #FCE96E",
"4'	c #FDE365",
"5'	c #F9C360",
"6'	c #FDC6C6",
"7'	c #FFDBD9",
"8'	c #FF0C0C",
"9'	c #FE7170",
":'	c #FF8A89",
";'	c #FFEFEE",
"<'	c #FFFFFE",
"='	c #FFA4A4",
">'	c #FF554B",
"?'	c #FED0B3",
"@'	c #FE6254",
"A'	c #FF9888",
"B'	c #FEFFE1",
"C'	c #FEF6DA",
"D'	c #FDFAE6",
"E'	c #FDFAE9",
"F'	c #FCED95",
"G'	c #FCC255",
"H'	c #FE5334",
"I'	c #FE482F",
"J'	c #FD9749",
"K'	c #FCEA72",
"L'	c #FFF7C2",
"M'	c #FBD6B7",
"N'	c #FDC4C4",
"O'	c #FFA6A6",
"P'	c #FF1818",
"Q'	c #FF3C3C",
"R'	c #FF3737",
"S'	c #FF6363",
"T'	c #FFF2F2",
"U'	c #FFDDDD",
"V'	c #FF1414",
"W'	c #FF4447",
"X'	c #FEFCF1",
"Y'	c #FEFFDE",
"Z'	c #FF443C",
"['	c #FF0403",
"]'	c #FFBEA4",
"^'	c #FEFFDB",
"_'	c #FEFBEC",
"`'	c #FDEE9A",
"a'	c #FDC86C",
"b'	c #FE5930",
"c'	c #FE4E26",
"d'	c #FDA061",
"e'	c #FCEA76",
"f'	c #FBE1E9",
"g'	c #FDC2C2",
"h'	c #FF7878",
"i'	c #FF7C7C",
"j'	c #FFF4F4",
"k'	c #FFF1F1",
"l'	c #FFF5F5",
"m'	c #FFFEFE",
"n'	c #FF7575",
"o'	c #FFCBCF",
"p'	c #FEFFF9",
"q'	c #FE7762",
"r'	c #FF190E",
"s'	c #FCD89C",
"t'	c #FDF6C7",
"u'	c #FEF8E3",
"v'	c #FCEB95",
"w'	c #FBC156",
"x'	c #FF6959",
"y'	c #FF6159",
"z'	c #FC9D4E",
"{'	c #FBE56E",
"|'	c #FFFFF2",
"}'	c #FF4949",
"~'	c #FFC8C8",
" (	c #FFF3F3",
"!(	c #FF1F1F",
"#(	c #FF2D2D",
"$(	c #FFFEFF",
"%(	c #FF9B8E",
"&(	c #FE1D0B",
"'(	c #FE3B22",
"((	c #FBE78F",
")(	c #FBE390",
"*(	c #FDF0C4",
"+(	c #FFFDFA",
",(	c #FBE586",
"-(	c #FBC35D",
".(	c #FE7162",
"0(	c #FF6A62",
"1(	c #FCA152",
"2(	c #FAE26E",
"3(	c #EA8D8D",
"4(	c #FD9E9E",
"5(	c #FF2222",
"6(	c #FFB2B2",
"7(	c #FFCCCC",
"8(	c #FFCBCB",
"9(	c #FFF6F6",
":(	c #FFE7E7",
";(	c #FF1010",
"<(	c #FF5656",
"=(	c #FE2216",
">(	c #FD603A",
"?(	c #FE7266",
"@(	c #FEF8DF",
"A(	c #FAE194",
"B(	c #FCEFC9",
"C(	c #FAE289",
"D(	c #FBCB82",
"E(	c #FD6D40",
"F(	c #FC6332",
"G(	c #FBAB78",
"H(	c #F9E177",
"I(	c #FFFFF9",
"J(	c #FCE4ED",
"K(	c #EA9393",
"L(	c #FE7B7B",
"M(	c #FF1B1B",
"N(	c #FF0404",
"O(	c #FF5757",
"P(	c #FF1C1D",
"Q(	c #FFB098",
"R(	c #FD764D",
"S(	c #FF0300",
"T(	c #FB8D44",
"U(	c #F9E06C",
"V(	c #F9D660",
"W(	c #FBEAA5",
"X(	c #FDF5CA",
"Y(	c #FDF5CC",
"Z(	c #FDF5CB",
"[(	c #FAE480",
"](	c #F9C04E",
"^(	c #FC7236",
"_(	c #FD6D3D",
"`(	c #FAA244",
"a(	c #F9E069",
"b(	c #FDF5B8",
"c(	c #FAD5AF",
"d(	c #E34B4B",
"e(	c #E98787",
"f(	c #FD9999",
"g(	c #FBB1B1",
"h(	c #F8ABAB",
"i(	c #FBACAC",
"j(	c #FBB2B2",
"k(	c #FBD9D9",
"l(	c #FBDFDF",
"m(	c #FBC6C6",
"n(	c #FB8D8D",
"o(	c #FBBABA",
"p(	c #FBE7E7",
"q(	c #F9B493",
"r(	c #F79660",
"s(	c #F7BC85",
"t(	c #F6C381",
"u(	c #F7C486",
"v(	c #F5BE75",
"w(	c #F4B559",
"x(	c #F6C17F",
"y(	c #F6C180",
"z(	c #F6C685",
"{(	c #F7B379",
"|(	c #FC6C4A",
"}(	c #FD6C5B",
"~(	c #F78C45",
" )	c #F4BC5D",
"!)	c #F5B954",
"#)	c #F3A153",
"$)	c #E54C4D",
"%)	c #E57070",
"&)	c #EE5151",
"')	c #E25252",
"()	c #E15252",
"))	c #E25353",
"*)	c #E24848",
"+)	c #E24646",
",)	c #E24C4C",
"-)	c #E25151",
".)	c #E24F4F",
"0)	c #E24747",
"1)	c #E24D4C",
"2)	c #E1514F",
"3)	c #E24B4D",
"4)	c #E2474C",
"5)	c #E2484C",
"6)	c #E24749",
"7)	c #E24748",
"8)	c #E1494B",
"9)	c #E44246",
":)	c #F02A2B",
";)	c #F12728",
"<)	c #E93839",
"=)	c #E24647",
">)	c #E44748",
"?)	c #E54848",
"! # $ % & ' & ( & ' ) * * + $ $ $ $ , , - . . . . . . . . 0 1 2 ",
"3 4 5 6 7 8 9 : ; < = > > 5 5 5 5 5 ? ? @ A B B B B B B B B A C ",
"D E F G H I J K L M N O P F F F F F F F Q B R S S S S S S T B U ",
"V W F X Y Z [ ] ^ _ ` a b F F F F F F F S B c F F F F F F d B e ",
"f g h i j k l m n o p q r s t u v w x y z B { F F F F F F | B e ",
"} ~  !!!#!$!%!&!'!(!)!*!+!,!-!.!0!1!2!B B B 3!F F F F F F 4!B e ",
"5!6!7!8!9!:!;!<!=!>!?!@!A!B!C!D!E!F!G!H!I!B 3!F F F F F F 4!B e ",
"J!K!L!M!N!O!P!Q!R!S!F T!U!V!W!X!Y!Z![!]!^!B 3!F F F F F F 4!B e ",
"_!`!a!b!c!d!e!f!g!h!i!F F F j!k!l!m!n!o!p!B q!F F F F F F r!B e ",
"_!s!a!t!u!v!w!x!y!z!{!|!F }!~! #!###$#%#&#B '#4!4!4!4!4!4!y B e ",
"_!(#)#*#+#,#-#.#0#1#2#3#4#5#6#7#8#9#:#;#<#B B B B B B B B B B =#",
"_!>#?#@#A#B#C#D#E#F#G#H#I#J#K#L#M#N#O#P#Q#R#S#T#U#B B V#W#X#Y#Z#",
"[#]#^#_#`#a#b#c#d#e#f#g#h#i#j#k#l#m#n#o#p#q#r#s#t#u#B v#w#x#y#z#",
"{#|#}#6#~# $!$#$$$%$&$'$($)$*$+$,$-$.$0$1$2$3$4$5$6$B 7$8$9$:$;$",
"<$=$>$?$@$A$B$C$%$%$D$E$F$G$H$I$J$K$L$M$N$O$P$Q$R$S$T$U$V$W$X$Y$",
"Z$[$]$^$_$`$a$b$c$d$e$f$g$h$i$F F F F j$k$l$m$n$o$p$q$r$s$t$u$Y$",
"v$w$x$y$z$F {$|$&$}$~$ %!%#%$%F F F F F %%&%'%(%)%*%+%,%8$-%.%Y$",
"[#0%1%A#2%3%4%5%6%7%8%9%:%;%<%=%>%?%@%F A%B%C%D%E%F%G%H%I%J%K%Y$",
"L%M%N%O%P%Q%R%S%T%U%F V%W%X%Y%Z%[%]%^%_%`%a%b%c%d%e%f%g%h%i%j%Y$",
"k%l%F F m%n%o%p%q%r%s%F B%t%u%v%w%x%y%z%{%|%|%}%~%Q  &!&#&$&%&&&",
"k%'&(&)&*&+&,&-&.&0&1&2&3&4&5&6&7&8&9&:&;&<&=&>&?&@&A&B&C&D&E&&&",
"k%F&(&G&B H&I&J&K&L&G M&N&O&6&P&Q&R&S&T&U&=&V&W&X&Y&Z&[&]&^&_&&&",
"k%`&s#a&B b&c&d&e&f&g&h&s#i&j&k&l&m&n&o&p&q&r&s&t&u&v&w&x&y&z&{&",
"k%|&}&~& '!'#'(&s#F F F $'%'B &'B ''(')'*'+','-'.'0'1'2'3'4'5'{&",
"k%6'7'2!8'9',&:';'<'F ='2!>'?'@'B A'B'C'D'E'E'F'G'H'I'J'K'L'M';$",
"k%N'O'B P'Q'R'S'T'F U'V'W'X'Y'Z'[']'^'_'F F F `'a'b'c'd'e'M#f'Y$",
"V g'h'B i'j'k'l'm'F n'B o'p'q'B r's't'u'F F <'v'w'x'y'z'{'|'u$Y$",
"V g'}'B ~'F F F F  (!(#($(%(&(B '((()(*(F F +(,(-(.(0(1(2(x#u$Y$",
"3(4(5(A 6(7(7(8(9(:(;(P'<(=(>(B ?(@(A(B(F F F C(D(E(F(G(H(I(J(Y$",
"K(L(M(N(B B B I!q!F O(B P(Q(R(S(T(U(V(W(X(Y(Z([(](^(_(`(a(b(c(d(",
"e(f(g(h(i(i(i(j(k(l(m(n(o(p(q(r(s(t(u(v(w(x(y(z({(|(}(~( )!)#)$)",
"%)&)')()))))))')*)+),)-).)0)1)2)3)4)5)6)+)7)7)8)9):);)<)8)=)>)?)"};