/* XPM */ 
static const char * icon48_xpm[] = {
"48 48 256 2",
"  	c None",
"! 	c #F3B8B8",
"# 	c #F1AEAE",
"$ 	c #ED9797",
"% 	c #E35F5F",
"& 	c #EB9090",
"' 	c #E97E7E",
"( 	c #FF0000",
") 	c #DE4A4A",
"* 	c #E56B6B",
"+ 	c white",
", 	c #DBFDC7",
"- 	c #A7FA7E",
". 	c #B6FA95",
"0 	c #C0FBA6",
"1 	c #A8FA85",
"2 	c #AFFA8B",
"3 	c #BCFB9F",
"4 	c #D1FDC4",
"5 	c #FFFCCC",
"6 	c #FFFBA5",
"7 	c #EFFEE8",
"8 	c #B6FB9D",
"9 	c #C7FB99",
": 	c #D6FA85",
"; 	c #E8FBAF",
"< 	c #F9FDEF",
"= 	c #FEFDDE",
"> 	c #FFF97D",
"? 	c #FEFDEA",
"@ 	c #F9FDE3",
"A 	c #D7FBAF",
"B 	c #E5FDDD",
"C 	c #F3FEED",
"D 	c #FFFA90",
"E 	c #FFFB9A",
"F 	c #FFFBB1",
"G 	c #FEFCBE",
"H 	c #F6FCCB",
"I 	c #EFFCB8",
"J 	c #FEFA87",
"K 	c #FDFEF9",
"L 	c #F8FBB3",
"M 	c #E9FA8C",
"N 	c #D8FCBF",
"O 	c #C9FBB6",
"P 	c #F14C4C",
"Q 	c #F03F3F",
"R 	c #FF9090",
"S 	c #FF8868",
"T 	c #FF8473",
"U 	c #FE7D52",
"V 	c #FA7959",
"W 	c #F47361",
"X 	c #ED6D57",
"Y 	c #E86745",
"Z 	c #E46132",
"[ 	c #E25B32",
"] 	c #E45630",
"^ 	c #E6502C",
"_ 	c #E74B28",
"` 	c #EA4427",
"a 	c #F44032",
"b 	c #FF3B2C",
"c 	c #FF3635",
"d 	c #FF3232",
"e 	c #FF2929",
"f 	c #FF2321",
"g 	c #FF1C1B",
"h 	c #FF1716",
"i 	c #FF1311",
"j 	c #F49181",
"k 	c #EC8C72",
"l 	c #E98861",
"m 	c #FA834A",
"n 	c #F97F57",
"o 	c #E07A52",
"p 	c #DD7445",
"q 	c #DD6E40",
"r 	c #E0683C",
"s 	c #E2623A",
"t 	c #F05D4A",
"u 	c #E85638",
"v 	c #EC4C2F",
"w 	c #FE302B",
"x 	c #DF9265",
"y 	c #E68D6A",
"z 	c #E38965",
"{ 	c #E6835A",
"| 	c #FE7C66",
"} 	c #E26E46",
"~ 	c #D9682D",
" !	c #D5611F",
"!!	c #EA5C3B",
"#!	c #F18975",
"$!	c #FD7F5E",
"%!	c #E97B5D",
"&!	c #D55B17",
"'!	c #F15841",
"(!	c #E6431D",
")!	c #EB3B18",
"*!	c #F53721",
"+!	c #EAFEDD",
",!	c #CFFCBA",
"-!	c #E8FCC7",
".!	c #CCFBAD",
"0!	c #90F747",
"1!	c #E0FDCE",
"2!	c #D1FCB3",
"3!	c #C3FB9D",
"4!	c #C8FBA4",
"5!	c #B4FB82",
"6!	c #BAFB8C",
"7!	c #B1FA7D",
"8!	c #D4FCB9",
"9!	c #ECFEE3",
":!	c #F5FCD4",
";!	c #BFFB96",
"<!	c #9DF85B",
"=!	c #F8FFF5",
">!	c #DBFBB4",
"?!	c #A1F965",
"@!	c #E5FDD8",
"A!	c #BDF4AA",
"B!	c #7BDF5A",
"C!	c #5ED142",
"D!	c #4FCD30",
"E!	c #4CCF29",
"F!	c #62DD2E",
"G!	c #81E060",
"H!	c #99E188",
"I!	c #8CE076",
"J!	c #73DE4A",
"K!	c #66DD36",
"L!	c #87E06B",
"M!	c #6BD341",
"N!	c #24BF00",
"O!	c #D5F8C7",
"P!	c #C7F1B9",
"Q!	c #31C30E",
"R!	c #57D03A",
"S!	c #93E17E",
"T!	c #B1ECA0",
"U!	c #6ED654",
"V!	c #40CB19",
"W!	c #A7E599",
"X!	c #A7E483",
"Y!	c #A9FA71",
"Z!	c #7DDB66",
"[!	c #9AEB75",
"]!	c #FEFDF1",
"^!	c #FDEEB0",
"_!	c #FEF6D8",
"`!	c #FEF8E2",
"a!	c #E04F4F",
"b!	c #A0E58C",
"c!	c #40C821",
"d!	c #E2FCD3",
"e!	c #90EA65",
"f!	c #FEEAA2",
"g!	c #FDECA9",
"h!	c #A1E887",
"i!	c #FDEDBA",
"j!	c #67D44D",
"k!	c #5AD332",
"l!	c #E0F6DA",
"m!	c #FF1A12",
"n!	c #FBF2C0",
"o!	c #FEF4CF",
"p!	c #FCFDD7",
"q!	c #AEEF86",
"r!	c #FDE899",
"s!	c #FCF3C6",
"t!	c #CCF2C1",
"u!	c #F0FCD7",
"v!	c #ADEC9A",
"w!	c #FDE793",
"x!	c #C0EEB3",
"y!	c #FCE381",
"z!	c #FF2B1B",
"{!	c #FCE58C",
"|!	c #BAEEAC",
"}!	c #F5F5C6",
"~!	c #F8F1B8",
" #	c #FFBBB9",
"!#	c #FD8885",
"##	c #FFDDDC",
"$#	c #F6FADF",
"%#	c #FCE17A",
"&#	c #FE9895",
"'#	c #FA8780",
"(#	c #FF8981",
")#	c #F5DCCD",
"*#	c #FF4443",
"+#	c #FCE174",
",#	c #FF3D3C",
"-#	c #F7EDE2",
".#	c #FDCBC6",
"0#	c #FF6867",
"1#	c #FCDF6C",
"2#	c #FF4A49",
"3#	c #FF5453",
"4#	c #FF7876",
"5#	c #FCDD66",
"6#	c #FFEEED",
"7#	c #FF5959",
"8#	c #FEA593",
"9#	c #FCDA60",
":#	c #FE5530",
";#	c #FFCCCC",
"<#	c #FFC6AF",
"=#	c #FF7362",
">#	c #FBD858",
"?#	c #FE5927",
"@#	c #FE5622",
"A#	c #FF5143",
"B#	c #FE8F70",
"C#	c #FBD750",
"D#	c #FF6B61",
"E#	c #FE5F37",
"F#	c #FDBF97",
"G#	c #FAD353",
"H#	c #FE6955",
"I#	c #FE6543",
"J#	c #FD8856",
"K#	c #FF0F09",
"L#	c #FBE295",
"M#	c #FADF8D",
"N#	c #FD683D",
"O#	c #FF766D",
"P#	c #FD632B",
"Q#	c #FE6D49",
"R#	c #FAE19B",
"S#	c #FAD96F",
"T#	c #FC9869",
"U#	c #F7CC52",
"V#	c #FCEDC3",
"W#	c #FD764E",
"X#	c #FC6928",
"Y#	c #FB6D30",
"Z#	c #FBE7AD",
"[#	c #FBB274",
"]#	c #F8D87D",
"^#	c #F8D164",
"_#	c #F7CD5C",
"`#	c #FD5A3F",
"a#	c #F7AF44",
"b#	c #F9DE93",
"c#	c #F8D372",
"d#	c #F5F5F4",
"e#	c #FAE3A6",
"f#	c #F5C649",
"g#	c #FB7846",
"h#	c #ED2D2D",
"i#	c #DD4545",
"j#	c #EB2828",
"! ! # # # # # # # # # # # # # # # # # # # # # # # # # # # # # # # # # # # # # # # # # # # # $ % ",
"$ & ' ' ' ' ' ' ' ' ' ' ' ' ' ' ' ' ' ' ' ' ' ' ' ' ' ' ' ' ( ( ( ( ( ( ( ( ( ( ( ( ( ( ( ( ( ) ",
"' * + + + , - . 0 - 1 1 1 2 3 4 5 6 6 + + + + + + + + + + + ( ( ( ( ( ( ( ( ( ( ( ( ( ( ( ( ( ) ",
"' * + + + 7 1 - 1 8 9 : ; < = 5 > = 6 ? + + + + + + + + + + ( ( ( ( ( ( ( ( ( ( ( ( ( ( ( ( ( ) ",
"' * + + + @ A B C ? D = E F G H I J 6 K + + + + + + + + + + ( ( ( + + + + + + + + + + + ( ( ( ) ",
"' * + + G F 6 G G G 6 L M N O 8 8 H 5 + + + + + + + + + + + ( ( ( + + + + + + + + + + + ( ( ( ) ",
"P Q R R S T U V W X Y Z [ ] ^ _ ` a b c d e e f f g g h h i ( ( ( + + + + + + + + + + + ( ( ( ) ",
"P Q j k l m n o p q r s t u ^ v ` a b c d w e f f g g h h i ( ( ( + + + + + + + + + + + ( ( ( ) ",
"P Q x y z { | o p } ~  !!!] ^ _ ` a b c d w e f f g g h h i ( ( ( + + + + + + + + + + + ( ( ( ) ",
"P Q j j #!{ $!%!p } r  !&!'!^ v (!(!)!*!w w e f f g g g h i ( ( ( + + + + + + + + + + + ( ( ( ) ",
"' * +!+!+!,!L -!3 3 0 .!0!, + + C 1!2!3!4!5!6!7!N 8!7 C + + ( ( ( + + + + + + + + + + + ( ( ( ) ",
"' * +!+!9!4 ; :!0 3 ,!+ ;!<!9!+ + + + + + =!7 8!N 4!3!7!5!1!( ( ( + + + + + + + + + + + ( ( ( ) ",
"' * 9!9!9!1!>!5 O 0 9!+ 7 ?!5!K + + + + + + + + + + 4!0!6!7 ( ( ( + + + + + + + + + + + ( ( ( ) ",
"' * 9!9!9!@!8!5 A!B!C!D!D!E!F!G!C + + + H!H!H!H!I!J!K!L!H!+ ( ( ( + + + + + + + + + + + ( ( ( ) ",
"' * 9!9!9!9!O M!N!N!N!N!N!N!N!N!O!+ + P!N!N!N!N!N!N!N!N!D!+ ( ( ( ( ( ( ( ( ( ( ( ( ( ( ( ( ( ) ",
"' * 9!9!9!P!Q!N!N!R!S!T!T!I!U!V!6!=!+ H!N!N!C!H!G!J!B!B!W!+ ( ( ( ( ( ( ( ( ( ( ( ( ( ( ( ( ( ) ",
"' * 9!9!P!Q!N!N!X!B 1!, ,!,!,!.!Y!.!+ Z!N!N!H!+ + C , Y!, , ( ( ( ( ( ( ( ( ( ( ( ( ( ( ( ( ( ) ",
"' * 9!9!D!N!N!L!5 1!O ,!,!,!,!,!3!Y!+!D!N!N![!N , + + @!, 7!N C =!+ + + + ( ( ( ( ]!^!_!`!`!a!) ",
"' * 7 b!N!N!c!, G -!,!,!,!N , d!@!3!6!N!N!N!d!, 5!+!1!+ + 1!3!4!.!=!=!+ + i i i i ]!^!`!K ]!a!) ",
"' * 7 c!N!N!b!1!C @ , @!+!9!9!9!9!@!e!N!N!Q!L!H!L!L!e!@!+ + + C ;!, C + K h h i i ? f!g!g!g!a!) ",
"' * P!N!N!N!B B -!5 9!9!9!9!9!9!9!7 L!N!N!N!N!N!N!N!h!4!8!1!+ + N 9!C _!g!i i i i i!f!^!]!]!a!) ",
"' * S!N!N!D!C 9!1!= C 9!9!9!9!9!9!9!j!N!N!k!S!H!H!H!l!K +!3!+!8!8!7 =!_!g!h m!m!i n!o!^!+ + a!) ",
"' * S!N!N!C!C C d!p!< 9!9!9!9!9!9!9!c!N!N!q!= + + + + + + C 9!1!C C =!o!^!m!m!m!m!r!s!g!+ K a!) ",
"' * S!N!N!D!C < B :!< 7 7 7 7 7 7 d!N!N!N!d!= + + + + + + + C < < C =!o!g!g m!m!m!f!s!g!+ K a!) ",
"' * T!N!N!N!t!=!9!u!? C 7 9!9!+!@!v!N!N!R!7 ? K + + + + + + =!< < < =!o!f!g m!m!m!w!s!f!+ K a!) ",
"' * =!Q!N!N!D!t!7 +!? 7 T!Z!O!@!+!S!N!N!Z!9!]!]!+ + + + + + =!=!=!=!=!o!f!f f f f o!o!f!+ K a!) ",
"' * < T!N!N!N!N!D!R!D!N!N!Q!=!+ + U!N!N!N!N!N!N!N!N!C!+ + + + + + + + o!r!e e e e + _!r!+ + a!) ",
"' * =!=!x!C!N!N!N!N!N!N!R!S!+ + + c!N!N!N!N!N!N!N!N!I!+ + + K < =!=!=!s!y!z!z!z!z!w!{!r!K K a!) ",
"' * =!=!=!=!9!x!x!|!@!]!9!9!C + + + =!7 7 7 =!]!+ + + + _!o!}!}!}!}!~!{!r!w w w w {!y!y!w!w!a!) ",
"' * =!=!=!=!=!=!=!=!C ]!C 7 7 C + + =!C C C C K  #!#!###o!`!$#s!s!s!^!%#f!c c c c {!y!y!y!%#a!) ",
"' * =!=!=!&#!#!#!#!#'#(#'#'#)#C =!K C C C C C K *#( ( + o!< < s!s!s!^!+#r!,#,#,#,#{!%#y!y!%#a!) ",
"' * =!=!=!( ( ( ( ( ( ( ( ( -#=!=!=!=!=!=!=!=!K ( ( d + o!< < s!s!s!^!+#r!*#*#*#,#y!+#%#%#+#a!) ",
"' * K K .#( ( f !#!#!#!#!#!#=!=!=!=!=!K + + + .#( ( 0#+ o!< < s!s!n!g!1#r!2#2#2#*#y!+#+#+#+#a!) ",
"' * K K &#( ( 3#+ + K K K K K + + K K K K K K &#( ( !#+ o!]!< n!n!n!g!1#w!2#2#2#2#y!1#+#+#1#a!) ",
"' * + + 4#( ( !#+ + K K K K + + + K + &#d ( ( f ( (  #+ s!? < n!n!n!g!5#{!3#3#3#3#%#1#1#1#5#a!) ",
"' * + + *#( (  #K K + K + K K + + 6#3#( ( ( ( ( ( ( + K s!s!n!n!n!n!f!5#{!7#7#7#3#+#5#5#5#5#a!) ",
"' * + + ( ( ( 4#!#!#!#&#+ + + + + *#( i 8#s!o!( ( w o!s!o!]!? ]!< < o!9#5#:#:#:#:#5#9#^!_!_!a!) ",
"' * + ;#( ( ( ( ( ( ( 4#+ + + + !#( ( ;#o!o!<#( ( =#_!o!_!+ + + + + _!>#1#?#@#@#:#+#>#_!+ + a!) ",
"' * + !#( ( d !#!#!#!# #+ + + ##i ( !#+ o!_!A#( ( B#o!_!o!+ + + + + _!C#^!D#?#E#0#{!C#o!+ + a!) ",
"' * + 0#( ( !#+ + + + + + + + 4#( ( 6#+ o!T ( ( ( F#o!_!o!+ + + + + `!G#9#H#D#D#I#>#>#o!+ + a!) ",
"' * + d ( (  #+ + + + + + + + i ( 3#+ + J#( K#( ( G#%#L#M#+ + + + + i!G#G#N#4#O#P#>#>#o!+ + a!) ",
"' * + ( ( ( + + + + + + + + ;#( ( !#+  #K#Q#( ( b R#i!L#M#+ + + + + i!G#L#4#Q#=#O#S#G#o!+ + a!) ",
"' *  #( ( d + + + + + + + +  #( ( d 0#( m!T#( ( 4#+ + L#M#+ + + + + i!U#V#W#X#Y#| Z#U#o!+ + a!) ",
"' * !#( ( ( ( ( ( ( ( ( + + ##( ( ( ( i [#Y#( ( m ]#]#^#L#+ + + + + i!U#_#Y#Y#Y#Y#^#U#o!+ + a!) ",
"' * 0#( ( ( ( ( ( ( ( d + + + 4#( ( d ;#`!`#( ( a#U#U#U#^#M#b#M#b#b#]#_#_#Y#W#$!Y#_#_#c#]#]#a!) ",
"' * + + d#+ + + + + + + + + + + ;#;#+ + + V#_#Z#e#e#e#e#e#c#f#b#R#b#b#R#Z#g#$!(#Y#_#_#_#U#U#a!) ",
"% a!a!a!a!a!a!a!a!a!a!a!a!a!a!a!a!a!a!a!a!a!a!a!a!a!a!a!a!a!a!a!a!a!a!a!a!h#h#h#h#a!a!a!a!a!) i#",
") i#i#i#i#i#i#i#i#i#i#i#i#i#i#i#i#i#i#i#i#i#i#i#i#i#i#i#i#i#i#i#i#i#i#i#i#j#j#j#j#i#i#i#i#i#i#i#"};